<svg width="21" height="21" viewBox="0 0 21 21" fill="none" xmlns="http://www.w3.org/2000/svg">
<path d="M1.12305 10.4506C1.12305 14.5345 3.74171 17.9948 7.35797 19.273V1.62817C3.74171 2.90633 1.12305 6.36671 1.12305 10.4506ZM19.8278 10.4506C19.8278 6.36671 17.2403 2.90633 13.5929 1.62817V19.273C17.2403 17.9948 19.8278 14.5345 19.8278 10.4506Z" fill="#83BF4F"/>
<path d="M7.3584 19.273C8.32481 19.6159 9.38475 19.803 10.4759 19.803C11.567 19.803 12.6269 19.6159 13.5933 19.273V1.62817C12.6269 1.28525 11.567 1.09821 10.4759 1.09821C9.38475 1.09821 8.32481 1.28525 7.3584 1.62817V19.273Z" fill="#F9F9F9"/>
</svg>
